<svg width="22" height="12" viewBox="0 0 22 12" fill="none" xmlns="http://www.w3.org/2000/svg">
<path fill-rule="evenodd" clip-rule="evenodd" d="M21.9061 4.5H16.7099L19.308 0L21.9061 4.5ZM0.557983 1.5C0.557983 1.08579 0.89377 0.75 1.30798 0.75H13.308C13.7222 0.75 14.058 1.08579 14.058 1.5C14.058 1.91421 13.7222 2.25 13.308 2.25H1.30798C0.89377 2.25 0.557983 1.91421 0.557983 1.5ZM2.05798 6C2.05798 5.58579 2.39377 5.25 2.80798 5.25H11.808C12.2222 5.25 12.558 5.58579 12.558 6C12.558 6.41421 12.2222 6.75 11.808 6.75H2.80798C2.39377 6.75 2.05798 6.41421 2.05798 6ZM3.55798 10.5C3.55798 10.0858 3.89377 9.75 4.30798 9.75H10.308C10.7222 9.75 11.058 10.0858 11.058 10.5C11.058 10.9142 10.7222 11.25 10.308 11.25H4.30798C3.89377 11.25 3.55798 10.9142 3.55798 10.5ZM19.308 12L21.906 7.5L16.7099 7.5L19.308 12Z" fill="#2E2F31"/>
</svg>
