<svg width="14" height="14" viewBox="0 0 14 14" fill="none" xmlns="http://www.w3.org/2000/svg">
<path d="M7.34179 1.50849C7.12305 1.28968 6.82635 1.16672 6.51696 1.16666H2.33329C2.02387 1.16666 1.72713 1.28957 1.50833 1.50837C1.28954 1.72716 1.16663 2.0239 1.16663 2.33332V6.51699C1.16669 6.82638 1.28965 7.12308 1.50846 7.34182L6.17513 12.0085C6.39391 12.2272 6.6906 12.3501 6.99996 12.3501C7.30932 12.3501 7.60601 12.2272 7.82479 12.0085L12.0085 7.82482C12.2272 7.60604 12.35 7.30935 12.35 6.99999C12.35 6.69063 12.2272 6.39394 12.0085 6.17516L7.34179 1.50849V1.50849ZM4.08329 5.24999C3.7738 5.24991 3.47701 5.12689 3.25821 4.90799C3.03942 4.68909 2.91655 4.39224 2.91663 4.08274C2.9167 3.77324 3.03972 3.47645 3.25863 3.25766C3.47753 3.03887 3.77438 2.916 4.08388 2.91607C4.39337 2.91615 4.69016 3.03917 4.90895 3.25807C5.12775 3.47698 5.25062 3.77383 5.25054 4.08332C5.25047 4.39282 5.12744 4.68961 4.90854 4.9084C4.68964 5.12719 4.39279 5.25007 4.08329 5.24999V5.24999Z" fill="#969696"/>
</svg>
