<svg width="14" height="14" viewBox="0 0 14 14" fill="none" xmlns="http://www.w3.org/2000/svg">
<path d="M6.99413 1.16666C3.77413 1.16666 1.16663 3.77999 1.16663 6.99999C1.16663 10.22 3.77413 12.8333 6.99413 12.8333C10.22 12.8333 12.8333 10.22 12.8333 6.99999C12.8333 3.77999 10.22 1.16666 6.99413 1.16666ZM9.33207 9.33745C9.10385 9.56407 8.73527 9.5632 8.50811 9.33552L6.41663 7.23916V4.66666C6.41663 4.34449 6.67779 4.08332 6.99996 4.08332V4.08332C7.32213 4.08332 7.58329 4.34449 7.58329 4.66666V6.76082L9.33353 8.51106C9.5619 8.73943 9.56125 9.10989 9.33207 9.33745V9.33745Z" fill="#969696"/>
</svg>
