<svg width="14" height="14" viewBox="0 0 14 14" fill="none" xmlns="http://www.w3.org/2000/svg">
<path d="M9.76312 4.52116C9.74824 5.50356 9.42471 6.83369 7.908 7.3494C8.38294 6.20817 8.45541 5.11596 8.11894 4.09499C7.66924 2.72434 6.16871 1.6537 5.17029 1.07066C4.82929 0.870653 4.39188 1.11903 4.39835 1.51709C4.41129 2.24392 4.19259 3.30607 3.13076 4.37867C1.71629 5.80619 1 7.28142 1 8.76254C1 10.6221 2.29412 13 4.88235 13C2.26759 10.3587 4.23529 8.10891 4.23529 8.10891C4.78271 11.9745 7.46282 13 8.76471 13C9.87182 13 12 12.183 12 8.78542C12 6.7376 11.1381 5.18328 10.4568 4.27605C10.2322 3.97669 9.76829 4.14663 9.76312 4.52116" fill="#969696"/>
</svg>
