<?xml version="1.0" encoding="utf-8"?>
<!-- Generator: Adobe Illustrator 23.0.2, SVG Export Plug-In . SVG Version: 6.00 Build 0)  -->
<svg version="1.1" id="圖層_1" xmlns="http://www.w3.org/2000/svg" xmlns:xlink="http://www.w3.org/1999/xlink" x="0px" y="0px"
	 viewBox="0 0 50 50" style="enable-background:new 0 0 50 50;" xml:space="preserve">
<style type="text/css">
	.st0{fill:#888888;}
</style>
<g>
	<path class="st0" d="M27.3,21.6V7h0c-5.5,0-10.7,2.8-13.6,7.5c-0.5,0.7-0.9,1.5-1.2,2.3H6c-0.6,0-1,0.5-1,1v14.5c0,0.6,0.5,1,1,1
		h6.4c0.3,0.8,0.7,1.5,1.2,2.2c2.9,4.7,8.1,7.5,13.7,7.5h0V28.4c1.6-0.3,2.7-1.7,2.7-3.4C30.1,23.3,28.9,22,27.3,21.6z"/>
	<path class="st0" d="M37.9,25c0-5-3.4-9.3-8.1-10.7V18c2.7,1.3,4.6,3.9,4.6,7s-1.9,5.7-4.6,7v3.7C34.5,34.3,37.9,30,37.9,25z"/>
	<path class="st0" d="M45,25c0-8.9-6.6-16.4-15.2-18v3.6C36.5,12.1,41.5,18,41.5,25s-5,12.9-11.7,14.5V43C38.4,41.4,45,33.9,45,25z"
		/>
</g>
</svg>
