<svg xmlns="http://www.w3.org/2000/svg" width="17.639" height="17.639" viewBox="0 0 17.639 17.639">
  <g transform="translate(0.5 0.5)">
    <path d="M663.2,23.1a5.967,5.967,0,1,0,8.439,0A5.967,5.967,0,0,0,663.2,23.1Zm7.607,7.607a4.79,4.79,0,1,1,0-6.774h0a4.79,4.79,0,0,1,0,6.773Z" transform="translate(-661.456 -21.358)" fill="#23accc" stroke="#23abcb" stroke-width="1"/>
    <path d="M670.9,30.8h0a.588.588,0,0,1,.832,0l6.123,6.122a.589.589,0,0,1,0,.833h0a.589.589,0,0,1-.833,0L670.9,31.635A.588.588,0,0,1,670.9,30.8Z" transform="translate(-661.456 -21.358)" fill="#23accc" stroke="#23abcb" stroke-width="1"/>
  </g>
</svg>
