<svg xmlns="http://www.w3.org/2000/svg" width="44.126" height="54.915" viewBox="0 0 44.126 54.915">
  <g id="グループ_637" data-name="グループ 637" transform="translate(-562.924 -89.769)">
    <path id="パス_261" data-name="パス 261" d="M606.566,89.769H563.408a.484.484,0,0,0-.484.484v32.14a22.064,22.064,0,1,0,44.126,0V90.253A.484.484,0,0,0,606.566,89.769Zm-.483,12.291H563.891V90.736h42.191Z" transform="translate(0 0)" fill="#070203"/>
    <g id="グループ_631" data-name="グループ 631" transform="translate(573.832 112.493)">
      <path id="パス_262" data-name="パス 262" d="M639.871,293.513l7.708,4.735.06,5.311a.834.834,0,0,1-.226.638l-5.842,3.829s-1.271.909-1.619-.619C639.951,307.409,639.871,293.475,639.871,293.513Z" transform="translate(-639.871 -287.356)" fill="#fff"/>
      <path id="パス_263" data-name="パス 263" d="M655.272,357.337l6.868,4.293-12.531,7.979a3.6,3.6,0,0,1-3.464.426l-3.833-2.417s-1.558-1.064.307-2.2Z" transform="translate(-641.442 -342.132)" fill="#fff"/>
      <path id="パス_264" data-name="パス 264" d="M640.28,253.744,663.1,268.21l2.521-1.528s3.69-2.243.471-4.835l-17.527-11.139a3.394,3.394,0,0,0-3.547-.251l-4.243,2.727S640.116,253.551,640.28,253.744Z" transform="translate(-640.199 -250.075)" fill="#fff"/>
    </g>
    <g id="グループ_632" data-name="グループ 632" transform="translate(565.456 91.719)">
      <path id="パス_265" data-name="パス 265" d="M581.348,108.249v-1h7.59v1h-3.112v2.494h2.6v.978h-2.6v2.807h3.51v1h-8.548v-1h1.385v-4.519h.968v4.519h1.689v-6.28Z" transform="translate(-580.788 -106.723)" fill="#070203"/>
      <path id="パス_266" data-name="パス 266" d="M655.331,104.461v3.453h-1.765v1.1h1.793v3.482a10.354,10.354,0,0,0,.655-3.756v-3.7a13.967,13.967,0,0,0,4.174-.685l.474.91a15.166,15.166,0,0,1-3.7.587V107.1h3.491v.871a8.846,8.846,0,0,1-1.1,3.189,7.436,7.436,0,0,0,1.537,1.516l-.655.773a9.634,9.634,0,0,1-1.432-1.516,6.55,6.55,0,0,1-1.822,1.506l-.465-.919a5.86,5.86,0,0,0,1.708-1.458,7.765,7.765,0,0,1-.987-3h-.275v.675A10.8,10.8,0,0,1,656,113.42l-.645-.7v.636h-.968v-3.375h-.854a7.574,7.574,0,0,1-.787,3.267l-.75-.675a8.363,8.363,0,0,0,.588-3.56v-4.372h.977v2.308h.8v-2.485Zm3.444,5.771a7.37,7.37,0,0,0,.73-2.171h-1.395A6.4,6.4,0,0,0,658.775,110.231Z" transform="translate(-641.906 -104.236)" fill="#070203"/>
      <path id="パス_267" data-name="パス 267" d="M725.717,111.611a7.43,7.43,0,0,1-.863,1.633l-.7-.518a5.924,5.924,0,0,0,.835-1.487Zm3.254-6.974v2.788h-1.784l.1.44H729.4v.782h-5.142v-.782h2.115l-.1-.44H724.74v-2.788Zm-.057,4.421v2.025H727.33v1.389a.745.745,0,0,1-.844.831h-.664l-.2-.88a3.93,3.93,0,0,0,.56.049.2.2,0,0,0,.209-.225v-1.164h-1.575v-2.025Zm-.835-3.3v-.44h-2.457v.44Zm0,.587h-2.457v.42h2.457Zm-.066,3.394h-2.3v.646h2.3Zm1.129,2.807-.7.5a10.66,10.66,0,0,0-.74-1.36l.674-.43A13.85,13.85,0,0,1,729.142,112.55Zm3.9-2.485a6.875,6.875,0,0,1-3.463,3.306l-.4-.929a6.207,6.207,0,0,0,3.1-2.974Zm-.474-5a9.656,9.656,0,0,1-2.827,1.986l-.408-.861a7.6,7.6,0,0,0,2.628-1.839Zm.247,2.572a9.92,9.92,0,0,1-2.894,2.259l-.4-.861a7.79,7.79,0,0,0,2.694-2.113Z" transform="translate(-703.829 -104.236)" fill="#070203"/>
      <path id="パス_268" data-name="パス 268" d="M801.7,104.484a6.575,6.575,0,0,0-.4-.782l1.063-.176c.123.294.247.607.36.959h3.254v.939H804.55a7.979,7.979,0,0,1-.474,1.262h2.343v.949h-8.444v-.949h2.306c-.133-.45-.266-.87-.418-1.262h-1.442v-.939Zm3.605,8.207h-1v-.372h-4.193v.372h-1v-4.5h6.186Zm-1-2.856v-.763h-4.193v.763Zm0,1.6v-.743h-4.193v.743Zm-3.064-4.754h1.85a6.473,6.473,0,0,0,.465-1.262H800.9C801.02,105.814,801.134,106.235,801.248,106.684Z" transform="translate(-767.187 -103.525)" fill="#070203"/>
    </g>
    <g id="グループ_634" data-name="グループ 634" transform="translate(579.901 103.614)">
      <g id="グループ_633" data-name="グループ 633" transform="translate(0 0)">
        <path id="パス_269" data-name="パス 269" d="M683.331,189.607v-1.3h.611v1.3h.623v.6h-.623v3.645h-.611v-3.645h-.647v-.6Zm2.83,3.694a2.368,2.368,0,0,0,.555-.907,4.455,4.455,0,0,0,.142-.728h-.388v-.555h.432l.018-.506h.574l-.019.506h.913a9.523,9.523,0,0,1-.167,2.337.563.563,0,0,1-.543.382c-.136,0-.3-.012-.487-.031l-.148-.537q.305.018.5.037c.117-.006.191-.1.216-.271s.043-.623.049-1.363h-.376a6.154,6.154,0,0,1-.185.987,2.9,2.9,0,0,1-.771,1.19l-.345-.438a.379.379,0,0,1-.018.049.6.6,0,0,1-.592.382,3.152,3.152,0,0,1-.376-.031L685,193.27c.16.012.29.025.395.037.136-.006.222-.1.265-.271a11.828,11.828,0,0,0,.056-1.369h-.321a5,5,0,0,1-.185,1,2.862,2.862,0,0,1-.752,1.19l-.395-.506a2.311,2.311,0,0,0,.611-.956,4,4,0,0,0,.142-.728h-.475v-.555h.524l.019-.493h.573l-.018.493h.857A12.64,12.64,0,0,1,686.162,193.3Zm1.659-3.12a.8.8,0,0,1-.728.315,2.508,2.508,0,0,1-.413-.031l-.167-.574a3.618,3.618,0,0,0,.549.049c.167-.006.265-.074.29-.21a2.683,2.683,0,0,0,.037-.456h-.931l-.019.08a1.537,1.537,0,0,1-.444.728,2.433,2.433,0,0,1-.974.475l-.321-.518a2.176,2.176,0,0,0,.814-.321,1.031,1.031,0,0,0,.321-.444h-.987v-.555h1.092c.012-.13.019-.265.019-.413h.6c0,.148-.006.284-.019.413h1.486A3.236,3.236,0,0,1,687.821,190.181Z" transform="translate(-682.684 -188.183)" fill="#fff"/>
        <path id="パス_270" data-name="パス 270" d="M727.871,189.646l-.339-.493a7.8,7.8,0,0,0,2.639-1.412h.419a6.725,6.725,0,0,0,2.639,1.412l-.339.493c-.1-.037-.191-.068-.278-.1v1.579h-4.465v-1.585C728.05,189.579,727.957,189.609,727.871,189.646Zm4.508,3.8h-.611v-.185H729v.191h-.611v-2.115h3.99Zm-.759-4.341v.111h-2.485v-.136c-.241.123-.487.24-.734.351h3.928C732.077,189.332,731.842,189.221,731.62,189.11Zm-1.529.808h-1.357v.74h1.357Zm1.677,2.849v-.95H729v.247h2.448v.432H729v.271Zm-2-2.251-.419.111a3.59,3.59,0,0,0-.3-.567l.425-.129A3.258,3.258,0,0,1,729.764,190.516Zm.617-2.263q-.333.268-.685.5h1.326A6.054,6.054,0,0,1,730.381,188.253Zm1.646,1.665h-1.356v.74h1.356Zm-.327.123a2.729,2.729,0,0,1-.29.586l-.413-.154a2.4,2.4,0,0,0,.271-.537Z" transform="translate(-721.174 -187.698)" fill="#fff"/>
        <path id="パス_271" data-name="パス 271" d="M773.719,188.188h.592v.58h-1.887v-.58h.678a6.049,6.049,0,0,0-.253-.58l.61-.173A7.368,7.368,0,0,1,773.719,188.188Zm.493,4.613h-1.061v.284h-.58v-2.177h1.64Zm-.08-3.682v.543h-1.5v-.543Zm0,.863v.543h-1.5v-.543Zm-.493,2.288v-.845h-.487v.845Zm1.535-1.067a9.447,9.447,0,0,1-.413,1.795l-.512-.327a7.176,7.176,0,0,0,.395-1.585Zm-.413-2.972v-.567h3.009a7.067,7.067,0,0,1-.253,2.454.923.923,0,0,1-.845.4,3.248,3.248,0,0,1-.388-.031l-.154-.555.407.031a.48.48,0,0,0,.493-.284,6.594,6.594,0,0,0,.117-1.449h-.561a4.705,4.705,0,0,1-.463,1.252,4.006,4.006,0,0,1-1.221,1.153l-.394-.518a3.18,3.18,0,0,0,.894-.691,5.329,5.329,0,0,0-.839-.549l.339-.419a5.58,5.58,0,0,1,.8.524,3.274,3.274,0,0,0,.259-.752Zm1.1,4.847c-.37,0-.555-.2-.555-.6v-1.554h.586v1.425c0,.1.05.16.148.16h.543a.167.167,0,0,0,.148-.092,1.888,1.888,0,0,0,.074-.592l.549.173a1.847,1.847,0,0,1-.21.938.674.674,0,0,1-.456.142Zm1.1-1.48-.5.222a6.755,6.755,0,0,0-.481-1.011l.506-.167A5.758,5.758,0,0,1,776.957,191.6Zm1.184.832-.53.24a11.792,11.792,0,0,0-.506-1.585l.549-.179C777.832,191.383,777.993,191.889,778.141,192.431Z" transform="translate(-759.703 -187.436)" fill="#fff"/>
        <path id="パス_272" data-name="パス 272" d="M818.487,188.22h.758v.6h-2.06v-.6h.691c-.062-.179-.136-.358-.21-.53l.61-.167C818.364,187.782,818.438,188.01,818.487,188.22Zm-.574,5.014H817.3v-2.269h1.795v2.189h-.611v-.24h-.567Zm1.141-4.064v.567H817.34v-.567Zm0,.875v.567H817.34v-.567Zm-.574,1.5h-.567v.771h.567Zm1-1.338-.37-.481a3.289,3.289,0,0,0,.684-.537,4.475,4.475,0,0,0-.469-.4l.389-.37a4.56,4.56,0,0,1,.4.357,3.3,3.3,0,0,0,.253-.518H819.5v-.543h1.4v.45a3.772,3.772,0,0,1-.475,1.11h1.3a5.38,5.38,0,0,1-.666-1.468l.456-.253c.037.142.086.278.136.413a2.8,2.8,0,0,0,.351-.426l.413.364a3.045,3.045,0,0,1-.549.543c.049.093.1.185.154.278a3.037,3.037,0,0,0,.426-.506l.413.364a3.548,3.548,0,0,1-.53.567,4.084,4.084,0,0,0,.542.536l-.394.456a4.428,4.428,0,0,1-.629-.7v.383h-1.622v-.284A3.316,3.316,0,0,1,819.48,190.212Zm.654,2.368a3.765,3.765,0,0,0-.308-.481l.573-.216a4.293,4.293,0,0,1,.358.7h.549a6.446,6.446,0,0,0,.339-.691l.573.2a4.029,4.029,0,0,1-.284.487h.777v.574h-3.373v-.574Zm2.226-2.319v1.579h-2.726v-1.579Zm-.6.524h-1.517v.524h1.517Z" transform="translate(-798.119 -187.511)" fill="#fff"/>
      </g>
    </g>
    <g id="グループ_636" data-name="グループ 636" transform="translate(564.973 103.992)">
      <g id="グループ_635" data-name="グループ 635" transform="translate(0 0)">
        <path id="パス_273" data-name="パス 273" d="M581.622,190.848a3.064,3.064,0,0,1,0,3.726,2.584,2.584,0,0,1-3.621-.007,3.07,3.07,0,0,1,0-3.712,2.257,2.257,0,0,1,1.81-.751A2.3,2.3,0,0,1,581.622,190.848Zm-3.017.505a2.468,2.468,0,0,0,0,2.715,1.678,1.678,0,0,0,2.407.021,2.089,2.089,0,0,0,.414-1.375,2.143,2.143,0,0,0-.414-1.389,1.67,1.67,0,0,0-2.407.028Z" transform="translate(-577.377 -190.104)" fill="#fff"/>
        <path id="パス_274" data-name="パス 274" d="M619.844,190.8v.7H618.2v4.308h-.821V191.5h-1.642v-.7Z" transform="translate(-610.301 -190.7)" fill="#fff"/>
        <path id="パス_275" data-name="パス 275" d="M651.524,190.8v.7h-1.642v4.308h-.821V191.5h-1.642v-.7Z" transform="translate(-637.49 -190.7)" fill="#fff"/>
      </g>
    </g>
  </g>
</svg>
